<svg width="124" height="114" viewBox="0 0 124 114" fill="none" xmlns="http://www.w3.org/2000/svg">
<path d="M123.436 52.9818C91.3091 82.8545 12.4 71.5818 0 52.9818V62.5636C0 62.5636 6.2 85.6727 63.1273 85.6727C120.618 83.4182 123.436 62.5636 123.436 62.5636V52.9818Z" fill="#FFC80E"/>
<path d="M123.436 81.1637C91.3091 111.036 12.4 99.7637 0 81.1637V90.7455C0 90.7455 6.2 113.855 63.1273 113.855C120.618 111.6 123.436 90.7455 123.436 90.7455V81.1637Z" fill="#FFC80E"/>
<path d="M123.436 81.1637C91.3091 111.036 12.4 99.7637 0 81.1637V90.7455C0 90.7455 6.2 113.855 63.1273 113.855C120.618 111.6 123.436 90.7455 123.436 90.7455V81.1637Z" fill="#FFC80E"/>
<path fill-rule="evenodd" clip-rule="evenodd" d="M124 23.6728V23.6727C124 10.5986 96.2417 0 62 0C27.7583 0 0 10.5986 0 23.6727V23.6728V34.9454V34.9455C0.000167383 48.0196 27.7584 58.6181 62 58.6181C96.2415 58.6181 124 48.0196 124 34.9455V34.9454V23.6728ZM51.8544 15.7818C59.3254 15.7818 65.3817 13.2583 65.3817 10.1454C65.3817 7.03256 59.3254 4.50908 51.8544 4.50908C44.3835 4.50908 38.3272 7.03256 38.3272 10.1454C38.3272 13.2583 44.3835 15.7818 51.8544 15.7818ZM39.4545 20.2909C39.4545 23.4037 33.3981 25.9272 25.9272 25.9272C18.4563 25.9272 12.4 23.4037 12.4 20.2909C12.4 17.178 18.4563 14.6545 25.9272 14.6545C33.3981 14.6545 39.4545 17.178 39.4545 20.2909ZM36.0727 40.5817C43.5436 40.5817 49.5999 38.0583 49.5999 34.9454C49.5999 31.8325 43.5436 29.309 36.0727 29.309C28.6018 29.309 22.5454 31.8325 22.5454 34.9454C22.5454 38.0583 28.6018 40.5817 36.0727 40.5817ZM85.6729 38.3272C85.6729 41.4401 79.6165 43.9635 72.1456 43.9635C64.6747 43.9635 58.6183 41.4401 58.6183 38.3272C58.6183 35.2143 64.6747 32.6908 72.1456 32.6908C79.6165 32.6908 85.6729 35.2143 85.6729 38.3272ZM98.0728 33.8183C105.544 33.8183 111.6 31.2948 111.6 28.1819C111.6 25.069 105.544 22.5455 98.0728 22.5455C90.6019 22.5455 84.5455 25.069 84.5455 28.1819C84.5455 31.2948 90.6019 33.8183 98.0728 33.8183ZM101.455 14.6545C101.455 17.7674 95.3983 20.2909 87.9274 20.2909C80.4565 20.2909 74.4001 17.7674 74.4001 14.6545C74.4001 11.5416 80.4565 9.01816 87.9274 9.01816C95.3983 9.01816 101.455 11.5416 101.455 14.6545ZM61.9999 28.1818C66.3579 28.1818 69.8908 26.6677 69.8908 24.7999C69.8908 22.9322 66.3579 21.4181 61.9999 21.4181C57.6418 21.4181 54.1089 22.9322 54.1089 24.7999C54.1089 26.6677 57.6418 28.1818 61.9999 28.1818Z" fill="#FFC80E"/>
</svg>
